<svg width="16" height="16" viewBox="0 0 16 16" fill="none" xmlns="http://www.w3.org/2000/svg">
<path d="M6.68934 11.889C6.49408 12.0842 6.17749 12.0842 5.98223 11.889C5.78697 11.6937 5.78697 11.3771 5.98223 11.1819L9.16421 7.99989L8.81197 7.64764L8.81066 7.64634L5.98223 4.81791C5.78697 4.62265 5.78697 4.30606 5.98223 4.1108C6.17749 3.91554 6.49408 3.91554 6.68934 4.1108L8.13767 5.55913C8.14968 5.57114 8.16187 5.58333 8.17426 5.59572L9.44706 6.86852C9.45945 6.88091 9.47164 6.8931 9.48365 6.90511L9.51777 6.93923L9.5214 6.9429C9.86816 7.29026 10.0459 7.4773 10.1153 7.69087C10.1805 7.89171 10.1805 8.10806 10.1153 8.3089C10.0459 8.52242 9.86824 8.70943 9.52164 9.05663L9.51777 9.06055L6.68934 11.889Z" fill="#2C3852" fill-opacity="0.6"/>
</svg>
