<svg width="16" height="16" viewBox="0 0 16 16" fill="none" xmlns="http://www.w3.org/2000/svg">
<g id="Size=16, Fill=Gradient - Blue">
<path id="Vector" fill-rule="evenodd" clip-rule="evenodd" d="M7.03234 1.43216C7.6145 1.02913 8.3855 1.02913 8.96766 1.43216L14.2677 5.10139C14.7263 5.41892 15 5.94127 15 6.49911V13.3704C15 14.1988 14.3284 14.8704 13.5 14.8704H11C10.1716 14.8704 9.5 14.1988 9.5 13.3704V10.9704C9.5 10.9151 9.45523 10.8704 9.4 10.8704H6.6C6.54477 10.8704 6.5 10.9151 6.5 10.9704V13.3704C6.5 14.1988 5.82843 14.8704 5 14.8704H2.5C1.67157 14.8704 1 14.1988 1 13.3704V6.49911C1 5.94127 1.27369 5.41892 1.73234 5.10139L7.03234 1.43216ZM8.39845 2.25435C8.15874 2.08839 7.84126 2.08839 7.60155 2.25435L2.30155 5.92358C2.11269 6.05433 2 6.26941 2 6.49911V13.3704C2 13.6465 2.22386 13.8704 2.5 13.8704H5C5.27614 13.8704 5.5 13.6465 5.5 13.3704V10.9704C5.5 10.3629 5.99249 9.87037 6.6 9.87037H9.4C10.0075 9.87037 10.5 10.3629 10.5 10.9704V13.3704C10.5 13.6465 10.7239 13.8704 11 13.8704H13.5C13.7761 13.8704 14 13.6465 14 13.3704V6.49911C14 6.26941 13.8873 6.05433 13.6984 5.92358L8.39845 2.25435Z" fill="url(#paint0_radial_11165_59273)"/>
</g>
<defs>
<radialGradient id="paint0_radial_11165_59273" cx="0" cy="0" r="1" gradientUnits="userSpaceOnUse" gradientTransform="translate(1 14.8704) rotate(-44.464) scale(19.6163 19.6129)">
<stop stop-color="#5BCAFF"/>
<stop offset="1" stop-color="#0066FF"/>
</radialGradient>
</defs>
</svg>
