<svg width="24" height="24" viewBox="0 0 24 24" fill="none" xmlns="http://www.w3.org/2000/svg">
<path fill-rule="evenodd" clip-rule="evenodd" d="M12.4923 8.93871C13.3587 8.71928 13.9997 7.93441 13.9997 6.99982C13.9997 5.89525 13.1043 4.99982 11.9997 4.99982C10.8951 4.99982 9.99971 5.89525 9.99971 6.99982C9.99971 7.93404 10.6402 8.71864 11.5061 8.93844V9.78403L6.50432 13.9522L6.50432 12.8203C6.50432 12.5465 6.27854 12.3263 6.00003 12.3283C5.72151 12.3303 5.49573 12.5539 5.49573 12.8277V15.0045C5.49573 15.3386 5.76993 15.6081 6.10983 15.6081H8.32438C8.60289 15.6081 8.83034 15.3862 8.83242 15.1124C8.83449 14.8386 8.6104 14.6167 8.33189 14.6167L7.26891 14.6167L11.5061 11.0857L11.5061 17.5043L10.6434 16.6564C10.4465 16.4628 10.1343 16.4702 9.94626 16.673C9.7582 16.8758 9.76542 17.1972 9.9624 17.3908L11.5314 18.933C11.7652 19.1628 12.1331 19.1628 12.3669 18.933L13.9359 17.3908C14.1329 17.1972 14.1401 16.8758 13.952 16.673C13.7639 16.4702 13.4518 16.4628 13.2548 16.6564L12.4923 17.406V11.0814L16.753 14.6153L15.6754 14.6153C15.3968 14.6153 15.1694 14.8372 15.1673 15.111C15.1652 15.3848 15.3893 15.6067 15.6678 15.6067H17.8807C18.2242 15.6067 18.504 15.3316 18.504 14.994V12.8189C18.504 12.5451 18.2782 12.3249 17.9997 12.3269C17.7212 12.3289 17.4954 12.5525 17.4954 12.8263V13.9319L12.4923 9.78218V8.93871ZM12.9997 6.99982C12.9997 7.55211 12.552 7.99982 11.9997 7.99982C11.4474 7.99982 10.9997 7.55211 10.9997 6.99982C10.9997 6.44754 11.4474 5.99982 11.9997 5.99982C12.552 5.99982 12.9997 6.44754 12.9997 6.99982Z" fill="url(#paint0_radial_16466_93921)"/>
<path fill-rule="evenodd" clip-rule="evenodd" d="M2 4C2 2.89543 2.89543 2 4 2H20C21.1046 2 22 2.89543 22 4V20C22 21.1046 21.1046 22 20 22H4C2.89543 22 2 21.1046 2 20V4ZM4 3H20C20.5523 3 21 3.44772 21 4V20C21 20.5523 20.5523 21 20 21H4C3.44772 21 3 20.5523 3 20V4C3 3.44772 3.44772 3 4 3Z" fill="url(#paint1_radial_16466_93921)"/>
<defs>
<radialGradient id="paint0_radial_16466_93921" cx="0" cy="0" r="1" gradientUnits="userSpaceOnUse" gradientTransform="translate(2 22) rotate(-45) scale(28.2843)">
<stop stop-color="#5BCAFF"/>
<stop offset="1" stop-color="#0066FF"/>
</radialGradient>
<radialGradient id="paint1_radial_16466_93921" cx="0" cy="0" r="1" gradientUnits="userSpaceOnUse" gradientTransform="translate(2 22) rotate(-45) scale(28.2843)">
<stop stop-color="#5BCAFF"/>
<stop offset="1" stop-color="#0066FF"/>
</radialGradient>
</defs>
</svg>
