<svg width="24" height="24" viewBox="0 0 24 24" fill="none" xmlns="http://www.w3.org/2000/svg">
<g id="Size=24, Fill=Gradient - Blue">
<g id="Union">
<path fill-rule="evenodd" clip-rule="evenodd" d="M12 8.15246C11.6907 8.15247 11.4386 8.1941 9.57925 8.95163C9.19962 9.10629 8.90038 9.2377 8.66849 9.36104C8.43876 9.48323 8.24722 9.61171 8.10483 9.77123C7.80786 10.1039 7.80887 10.4866 7.80976 10.822L7.80986 10.8761V14.3678C7.80983 15.1636 7.90557 15.716 8.20487 16.1885C8.48111 16.6246 8.91211 16.9536 9.43577 17.3534L9.48299 17.3895C10.0652 17.8343 10.5614 18.1393 10.971 18.3349C11.3718 18.5262 11.7208 18.6278 12 18.6278C12.2793 18.6278 12.6282 18.5262 13.029 18.3349C13.4386 18.1393 13.9348 17.8343 14.517 17.3895L14.5642 17.3535C15.0879 16.9536 15.5189 16.6246 15.7951 16.1885C16.0944 15.716 16.1901 15.1636 16.1901 14.3678V10.8761L16.1902 10.822C16.1911 10.4866 16.1921 10.1039 15.8952 9.77123C15.7528 9.61171 15.5613 9.48322 15.3315 9.36103C15.0996 9.23769 14.8004 9.10629 14.4208 8.95163C12.5614 8.1941 12.3093 8.15246 12 8.15246ZM12 8.99049L12 13.3901H8.64788V14.3679C8.64786 15.1084 8.7407 15.4683 8.91281 15.74C9.09972 16.0351 9.40533 16.2756 9.9917 16.7235C10.5408 17.143 10.9874 17.4141 11.332 17.5786C11.6855 17.7474 11.9021 17.7898 12 17.7898L12 13.3901L15.3521 13.3901V10.8761C15.3521 10.4558 15.334 10.401 15.27 10.3293C15.2238 10.2775 15.1325 10.2044 14.938 10.1009C14.7456 9.99859 14.4792 9.88033 14.1046 9.72772C12.2827 8.98548 12.1216 8.98839 12.0155 8.99031L12 8.99049Z" fill="url(#paint0_radial_7056_49687)"/>
<path fill-rule="evenodd" clip-rule="evenodd" d="M16.2272 3.26811H17.7842C18.8887 3.26811 19.7842 4.16354 19.7842 5.26811V20.7131C19.7842 21.8177 18.8888 22.7131 17.7842 22.7131H6.21582C5.11125 22.7131 4.21582 21.8177 4.21582 20.7131V5.26811C4.21582 4.16355 5.11125 3.26811 6.21582 3.26811H7.77271C7.98363 2.69495 8.5345 2.28613 9.18085 2.28613H14.819C15.4654 2.28613 16.0163 2.69495 16.2272 3.26811ZM7.75996 4.26811H6.21582C5.66354 4.26811 5.21582 4.71583 5.21582 5.26811V20.7131C5.21582 21.2654 5.66354 21.7131 6.21582 21.7131H17.7842C18.3365 21.7131 18.7842 21.2654 18.7842 20.7131V5.26811C18.7842 4.71583 18.3365 4.26811 17.7842 4.26811H16.2399C16.0392 4.8601 15.4789 5.28613 14.819 5.28613L9.18085 5.28613C8.52103 5.28613 7.96071 4.8601 7.75996 4.26811Z" fill="url(#paint1_radial_7056_49687)"/>
</g>
</g>
<defs>
<radialGradient id="paint0_radial_7056_49687" cx="0" cy="0" r="1" gradientUnits="userSpaceOnUse" gradientTransform="translate(4.21582 22.7131) rotate(-52.6873) scale(25.6834 24.7643)">
<stop stop-color="#5BCAFF"/>
<stop offset="1" stop-color="#0066FF"/>
</radialGradient>
<radialGradient id="paint1_radial_7056_49687" cx="0" cy="0" r="1" gradientUnits="userSpaceOnUse" gradientTransform="translate(4.21582 22.7131) rotate(-52.6873) scale(25.6834 24.7643)">
<stop stop-color="#5BCAFF"/>
<stop offset="1" stop-color="#0066FF"/>
</radialGradient>
</defs>
</svg>
