<svg width="24" height="24" viewBox="0 0 24 24" fill="none" xmlns="http://www.w3.org/2000/svg">
<path d="M12.4995 7.28876C12.1901 7.11013 11.8089 7.11013 11.4995 7.28876L7.73633 9.46141C7.42693 9.64004 7.23633 9.97017 7.23633 10.3274V14.6727C7.23633 15.03 7.42693 15.3601 7.73633 15.5388L11.4995 17.7114C11.8089 17.89 12.1901 17.89 12.4995 17.7114L16.2626 15.5388C16.572 15.3601 16.7626 15.03 16.7626 14.6727V10.3274C16.7626 9.97017 16.572 9.64004 16.2626 9.46141L12.4995 7.28876Z" fill="url(#paint0_radial_6946_218007)"/>
<path fill-rule="evenodd" clip-rule="evenodd" d="M13.2495 2.14426C12.476 1.69768 11.523 1.69768 10.7495 2.14426L3.65625 6.23956C2.88275 6.68614 2.40625 7.51146 2.40625 8.40463V16.5952C2.40625 17.4884 2.88275 18.3137 3.65625 18.7603L10.7495 22.8556C11.523 23.3022 12.476 23.3022 13.2495 22.8556L20.3428 18.7603C21.1163 18.3137 21.5928 17.4884 21.5928 16.5952V8.40463C21.5928 7.51146 21.1163 6.68614 20.3428 6.23956L13.2495 2.14426ZM11.2495 3.01029C11.7136 2.74234 12.2854 2.74234 12.7495 3.01029L19.8428 7.10559C20.3069 7.37354 20.5928 7.86873 20.5928 8.40463V16.5952C20.5928 17.1311 20.3069 17.6263 19.8428 17.8943L12.7495 21.9896C12.2854 22.2575 11.7136 22.2575 11.2495 21.9896L4.15625 17.8943C3.69215 17.6263 3.40625 17.1311 3.40625 16.5952V8.40463C3.40625 7.86873 3.69215 7.37354 4.15625 7.10559L11.2495 3.01029Z" fill="url(#paint1_radial_6946_218007)"/>
<defs>
<radialGradient id="paint0_radial_6946_218007" cx="0" cy="0" r="1" gradientUnits="userSpaceOnUse" gradientTransform="translate(2.40625 23.1905) rotate(-48.0966) scale(28.7277 28.56)">
<stop stop-color="#5BCAFF"/>
<stop offset="1" stop-color="#0066FF"/>
</radialGradient>
<radialGradient id="paint1_radial_6946_218007" cx="0" cy="0" r="1" gradientUnits="userSpaceOnUse" gradientTransform="translate(2.40625 23.1905) rotate(-48.0966) scale(28.7277 28.56)">
<stop stop-color="#5BCAFF"/>
<stop offset="1" stop-color="#0066FF"/>
</radialGradient>
</defs>
</svg>
