<svg width="16" height="16" viewBox="0 0 16 16" fill="none" xmlns="http://www.w3.org/2000/svg">
<path fill-rule="evenodd" clip-rule="evenodd" d="M10.6788 1.53285C9.18258 0.913094 7.51777 0.831307 5.96802 1.30142C4.41827 1.77153 3.07946 2.76445 2.17972 4.11101C1.27999 5.45756 0.874981 7.07443 1.03372 8.68612C1.19238 10.297 1.90441 11.8031 3.04856 12.948L2.64004 13.3566C2.2902 13.7064 2.11528 13.8813 2.09293 14.0492C2.07346 14.1953 2.1195 14.3426 2.21874 14.4517C2.33269 14.5769 2.57609 14.6211 3.06289 14.7094L4.91255 15.045C5.29428 15.1143 5.48514 15.1489 5.62233 15.091C5.74235 15.0404 5.83786 14.9449 5.88852 14.8248C5.94644 14.6876 5.9118 14.4968 5.84254 14.1151L5.50689 12.2654C5.41856 11.7786 5.37439 11.5352 5.24917 11.4213C5.14011 11.322 4.99281 11.276 4.84665 11.2954C4.67882 11.3178 4.5039 11.4927 4.15406 11.8425L3.75567 12.2409C2.77511 11.2596 2.16488 9.96875 2.0289 8.5881C1.89284 7.20666 2.23999 5.82077 3.01119 4.66658C3.7824 3.51239 4.92994 2.66131 6.2583 2.25836C7.58666 1.85541 9.01365 1.92551 10.2961 2.45673C11.5786 2.98794 12.6372 3.9474 13.2915 5.17162C13.9459 6.39585 14.1555 7.80909 13.8847 9.17054C13.6139 10.532 12.8794 11.7574 11.8064 12.6381C10.7333 13.5187 9.38814 14 8.00001 14C7.72387 14 7.50001 14.2239 7.50001 14.5C7.50001 14.7761 7.72387 15 8.00001 15C9.6195 15 11.1889 14.4385 12.4408 13.4111C13.6926 12.3837 14.5496 10.954 14.8655 9.36563C15.1815 7.77727 14.9369 6.12849 14.1735 4.70023C13.41 3.27197 12.175 2.1526 10.6788 1.53285ZM5.39018 4.51015C5.5155 4.49991 5.65776 4.49996 5.77687 4.50001H10.2232C10.3423 4.49996 10.4845 4.49991 10.6098 4.51015C10.7551 4.52201 10.9631 4.55245 11.181 4.6635C11.4632 4.80731 11.6927 5.03678 11.8365 5.31903C11.9476 5.53697 11.978 5.74496 11.9899 5.89018C12.0001 6.0155 12.0001 6.15776 12 6.27687V8.72315C12.0001 8.84227 12.0001 8.98452 11.9899 9.10984C11.978 9.25506 11.9476 9.46305 11.8365 9.681C11.6927 9.96324 11.4632 10.1927 11.181 10.3365C10.9631 10.4476 10.7551 10.478 10.6098 10.4899C10.4845 10.5001 10.3423 10.5001 10.2232 10.5L9 10.5V11.25H9.25C9.52614 11.25 9.75 11.4739 9.75 11.75C9.75 12.0261 9.52614 12.25 9.25 12.25H6.75C6.47386 12.25 6.25 12.0261 6.25 11.75C6.25 11.4739 6.47386 11.25 6.75 11.25H7V10.5L5.77685 10.5C5.65774 10.5001 5.51549 10.5001 5.39018 10.4899C5.24496 10.478 5.03697 10.4476 4.81903 10.3365C4.53678 10.1927 4.30731 9.96324 4.1635 9.681C4.05245 9.46305 4.02201 9.25506 4.01015 9.10984C3.99991 8.98452 3.99996 8.84227 4.00001 8.72315V6.27687C3.99996 6.15776 3.99991 6.0155 4.01015 5.89018C4.02201 5.74496 4.05245 5.53697 4.1635 5.31903C4.30731 5.03678 4.53678 4.80731 4.81903 4.6635C5.03697 4.55245 5.24496 4.52201 5.39018 4.51015ZM5.05451 5.77302C5.00001 5.87997 5.00001 6.01999 5.00001 6.30001V8.70001C5.00001 8.98004 5.00001 9.12005 5.05451 9.22701C5.10245 9.32109 5.17894 9.39758 5.27302 9.44551C5.37997 9.50001 5.51999 9.50001 5.80001 9.50001H10.2C10.48 9.50001 10.6201 9.50001 10.727 9.44551C10.8211 9.39758 10.8976 9.32109 10.9455 9.22701C11 9.12005 11 8.98004 11 8.70001V6.30001C11 6.01999 11 5.87997 10.9455 5.77302C10.8976 5.67894 10.8211 5.60245 10.727 5.55451C10.6201 5.50001 10.48 5.50001 10.2 5.50001H5.80001C5.51999 5.50001 5.37997 5.50001 5.27302 5.55451C5.17894 5.60245 5.10245 5.67894 5.05451 5.77302ZM6.5 6.5C6.22386 6.5 6 6.72386 6 7C6 7.27614 6.22386 7.5 6.5 7.5H7.5C7.77614 7.5 8 7.27614 8 7C8 6.72386 7.77614 6.5 7.5 6.5H6.5Z" fill="url(#paint0_radial)"/>
<defs>
<radialGradient id="paint0_radial" cx="0" cy="0" r="1" gradientUnits="userSpaceOnUse" gradientTransform="translate(1 15.1203) rotate(-45.2451) scale(19.8843 19.8835)">
<stop stop-color="#5BCAFF"/>
<stop offset="1" stop-color="#0066FF"/>
</radialGradient>
</defs>
</svg>
